<?xml version="1.0" encoding="UTF-8" standalone="no"?>
<!-- Created with Inkscape (http://www.inkscape.org/) -->
<svg
   xmlns:dc="http://purl.org/dc/elements/1.1/"
   xmlns:cc="http://web.resource.org/cc/"
   xmlns:rdf="http://www.w3.org/1999/02/22-rdf-syntax-ns#"
   xmlns:svg="http://www.w3.org/2000/svg"
   xmlns="http://www.w3.org/2000/svg"
   xmlns:sodipodi="http://sodipodi.sourceforge.net/DTD/sodipodi-0.dtd"
   xmlns:inkscape="http://www.inkscape.org/namespaces/inkscape"
   width="529"
   height="235"
   id="svg2448"
   sodipodi:version="0.32"
   inkscape:version="0.45.1"
   version="1.0"
   sodipodi:docbase="C:\Wikipedia Bilder"
   sodipodi:docname="DVD Video Logo.svg"
   inkscape:output_extension="org.inkscape.output.svg.inkscape">
  <defs
     id="defs2450" />
  <sodipodi:namedview
     id="base"
     pagecolor="#ffffff"
     bordercolor="#666666"
     borderopacity="1.0"
     inkscape:pageopacity="0.0"
     inkscape:pageshadow="2"
     inkscape:zoom="1.6218015"
     inkscape:cx="260.72849"
     inkscape:cy="113.86856"
     inkscape:document-units="px"
     inkscape:current-layer="layer1"
     showgrid="true"
     inkscape:grid-points="false"
     gridtolerance="50"
     width="529px"
     height="235px"
     inkscape:window-width="1280"
     inkscape:window-height="975"
     inkscape:window-x="0"
     inkscape:window-y="22" />
  <metadata
     id="metadata2453">
    <rdf:RDF>
      <cc:Work
         rdf:about="">
        <dc:format>image/svg+xml</dc:format>
        <dc:type
           rdf:resource="http://purl.org/dc/dcmitype/StillImage" />
      </cc:Work>
    </rdf:RDF>
  </metadata>
  <g
     inkscape:label="Ebene 1"
     inkscape:groupmode="layer"
     id="layer1"
     transform="translate(-97.14286,-345.57648)">
    <path
       style="fill:#000000"
       d="M 303.14286,576.46258 C 189.84625,573.98042 101.14286,559.07516 101.14286,542.51954 C 101.14286,537.76249 113.90101,530.97872 131.11185,526.5844 C 170.07182,516.63704 259.43575,508.60413 331.39286,508.58118 C 339.57409,508.57857 344.43823,508.29784 346.20599,508.29863 C 345.63778,506.53586 343.92785,501.20471 341.22061,494.41728 C 338.51338,487.62984 330.17743,466.55148 322.69629,447.57648 C 315.21515,428.60148 307.82207,409.9856 306.26722,406.20786 L 303.44022,399.33923 L 302.72964,407.20786 C 299.8814,438.74791 277.17609,463.31787 240.03563,475.05054 C 220.4889,481.22535 214.06927,481.81649 161.39286,482.29226 C 132.49442,482.55326 113.14286,482.36034 113.14286,481.81123 C 113.14286,481.30698 117.41786,460.69088 122.64286,435.99768 C 127.86786,411.30448 131.85578,391.3637 132,391.36218 L 182,391.36218 L 180.1989,402.84392 C 177.48711,420.13118 171.14286,448.75414 171.14286,450.67244 C 171.14286,452.29261 171.89419,452.57648 176.18228,452.57648 C 201.28684,452.57648 224.65183,444.92626 237.14221,432.61684 C 244.82975,425.04067 248.14561,418.106 248.13348,409.63014 C 248.11142,394.22912 235.65497,383.74959 213.64286,380.61342 C 209.79286,380.06489 190.33036,379.60718 170.39286,379.59629 C 150.45536,379.58539 133.94403,379.65775 134,379.36218 L 139.78676,350.07648 L 238.15388,350.07648 L 336.52101,350.07648 L 350.08194,391.29396 C 357.54044,413.96357 362.61219,427.16893 364.7255,432.54396 C 369.28543,427.72084 375.84295,420.24997 381.11001,414.01479 C 385.80308,408.48086 393.91786,398.83843 399.14286,392.58716 C 404.36786,386.3359 410.44286,379.11661 412.64286,376.54429 C 414.84286,373.97198 419.5185,368.39897 423.03317,364.15983 C 426.54783,359.92069 430.79313,354.90524 432.46716,353.01439 L 435.51086,349.57648 L 491.36627,349.57648 C 524.36103,349.57648 551.1454,350.014 556.80848,350.64547 C 588.00091,354.12363 609.80782,368.43395 618.94879,391.44808 C 620.88308,396.31803 622.57117,399.96294 622.59924,410.57648 C 622.63122,422.66973 621.3616,422.69474 618.00231,431.26657 C 606.67643,460.1666 575.20137,476.90023 530.97771,481.55854 C 519.89519,482.72591 443.14286,482.92685 443.14286,481.78848 C 443.14286,481.35508 445.1101,470.89258 447.51451,458.53848 C 449.91892,446.18438 453.832,425.83898 456.21025,413.32648 L 460,391.36218 L 485,391.36218 L 510,391.36218 L 503.53868,420.82648 C 499.76996,439.16241 497.68001,451.45074 498.23226,452.02672 C 498.80751,452.62669 504.58026,452.55241 513.8931,451.82519 C 543.16851,449.53916 561.36923,440.81697 569.08522,425.37591 C 576.45217,410.63333 570.23159,393.78434 554.4491,385.73271 C 544.49308,380.65353 541.05413,380.27791 500.51269,379.84148 L 462.38253,379.431 L 450.64768,393.25374 C 444.19351,400.85625 437.57302,408.65148 435.93549,410.57648 C 415.67118,434.39815 355.15299,507.21118 354.6093,508.16333 C 357.32726,508.26898 360.00263,508.4299 381.42497,508.96865 C 481.12889,511.47614 552.99654,520.0117 582.14286,532.80749 C 587.40157,535.11616 593.14286,540.24694 593.14286,542.63779 C 593.14286,556.12134 537.33837,568.21772 448.14286,574.06848 C 429.89867,575.26521 350.43358,577.61797 339.64286,577.2809 C 338.54286,577.24654 322.11786,576.8783 303.14286,576.46258 z M 452.76637,559.41342 C 462.7295,554.73019 466.3677,544.35766 461.05291,535.78844 C 456.94733,529.16886 445.22946,525.30644 435.46568,527.35441 C 421.57168,530.26871 414.92026,540.33758 420.00557,550.75779 C 425.06396,561.12285 440.47022,565.19329 452.76637,559.41342 z M 434.64286,554.04032 C 423.02542,546.12925 429.29623,533.56331 441,533.36218 C 450.31585,533.65469 455.12648,539.6524 453.06742,548.40182 C 449.53225,554.70016 442.34611,557.25091 434.64286,554.04032 z M 269,527.36218 L 260,527.36218 L 250,551.36218 L 240,527.36218 L 231,527.36218 L 246,561.36218 L 254,561.36218 L 269,527.36218 z M 296,527.36218 L 288,527.36218 L 288,561.36218 L 296,561.36218 L 296,527.36218 z M 342.12588,559.98888 C 348.5084,558.09348 352.52151,554.38239 354.18203,548.84008 C 356.57316,540.85921 352.78992,533.13805 344.68423,529.45614 C 341.52574,528.02144 337.98771,527.37949 329,527.36218 L 318,527.36218 L 318,561.36218 C 318,561.36218 337.76249,561.28467 342.12588,559.98888 z M 327.14286,544.19298 L 327.14286,533.57648 L 333.68433,533.73084 C 339.09816,534.05504 340.93695,535.43908 343.14937,537.81384 C 346.03749,540.91387 345.85083,547.64189 342.77759,551.21474 C 340.73691,553.58718 339.50182,554.02251 333.77759,554.387 L 327.14286,554.80947 L 327.14286,544.19298 z M 399,555.36218 L 383,555.36218 L 383,547.36218 L 399,547.36218 L 399,541.36218 L 383,541.36218 L 383,533.36218 L 399,533.36218 L 399,527.36218 L 374,527.36218 L 374,561.36218 L 399,561.36218 L 399,555.36218 z "
       id="path2466"
       sodipodi:nodetypes="cssscsscccssssccssssssscccccccssscccssssssscccccsssscccscsssssccssscccccccccccccccccccsscccccccsscccccccccccccccc" />
  </g>
</svg>
